<svg xmlns="http://www.w3.org/2000/svg" viewBox="0 0 57.81 55.26"><defs><style>.cls-1{fill:#069;}</style></defs><g id="Layer_2" data-name="Layer 2"><g id="Layer_1-2" data-name="Layer 1"><path class="cls-1" d="M.73,18H13.12V55.26H.73Z"/><path class="cls-1" d="M7,0C2.77,0,0,2.78,0,6.44s2.69,6.44,6.85,6.44h.08c4.32,0,7-2.86,7-6.44S11.25,0,7,0Z"/><path class="cls-1" d="M43.54,17.1a12.32,12.32,0,0,0-11.17,6.15V18H20V55.26H32.37V34.44a8.68,8.68,0,0,1,.41-3,6.8,6.8,0,0,1,6.36-4.53c4.48,0,6.28,3.42,6.28,8.43V55.26H57.81V33.88C57.81,22.43,51.7,17.1,43.54,17.1Z"/></g></g></svg>