<svg xmlns="http://www.w3.org/2000/svg" viewBox="0 0 220.36 145.33"><defs><style>.cls-1{fill:#fff;}.cls-2{fill:#93d500;}.cls-3{fill:#e0e621;}.cls-4{fill:#3bd4ae;}.cls-5{fill:#00b2e3;}.cls-6{opacity:0.8;}</style></defs><g id="Layer_2" data-name="Layer 2"><g id="Layer_1-2" data-name="Layer 1"><path class="cls-1" d="M8.11,90.73c-3.54,0-6.95,2.82-6.95,7.82,0,5.73,4,9.19,8.64,9.19a8.7,8.7,0,0,0,4.51-1.14.9.9,0,0,1,.19.56c0,.6-2.09,1.63-4.75,1.63-5.5,0-9.75-4-9.75-10.17,0-5.78,4-9,8.11-9A7.49,7.49,0,0,1,15,93.58a.41.41,0,0,1-.16.63,1.82,1.82,0,0,1-.79.27,6.28,6.28,0,0,0-6-3.75"/><path class="cls-1" d="M38.46,89.67c4.54,0,8.42,3.22,8.42,9.56s-3.88,9.56-8.42,9.56S30,105.57,30,99.23s3.88-9.56,8.43-9.56m.21,18.07c3.64,0,7-2.67,7-8.3,0-6-3.38-8.71-7.42-8.71-3.67,0-7,2.66-7,8.29,0,6,3.4,8.72,7.42,8.72"/><path class="cls-1" d="M64.53,91.68v16.8h-.64c-.39,0-.52-.11-.52-.45V90.3a1.94,1.94,0,0,1,1-.42.5.5,0,0,1,.47.29l10.59,16.62V90h.64c.39,0,.53.1.53.45v17.72a2,2,0,0,1-1,.42c-.22,0-.32-.08-.48-.29Z"/><path class="cls-1" d="M105.6,90c.35,0,.45.13.45.53V91H99.92v17.44h-.63c-.4,0-.53-.11-.53-.45V91H93a.3.3,0,0,1-.32-.34,2.79,2.79,0,0,1,.11-.71Z"/><path class="cls-1" d="M122.59,108.48c-.4,0-.53-.11-.53-.45V90h5c4.19,0,7.15,2.29,7.15,6.39a6,6,0,0,1-4.75,6.13,21.58,21.58,0,0,0,3.41,4.3c.87.82,1.24.93,1.82.93H135a1,1,0,0,1,.08.42c0,.34-.37.63-.87.63-.66,0-1.29-.34-2.24-1.29a23.61,23.61,0,0,1-3.54-4.81,9.64,9.64,0,0,1-1.19.08,12.36,12.36,0,0,1-4-.63v6.34Zm.63-7.29a13.25,13.25,0,0,0,4,.53c3.43,0,5.86-1.91,5.86-5.34,0-3.59-2.56-5.34-6-5.34h-3.88Z"/><path class="cls-1" d="M158.27,89.67c4.54,0,8.43,3.22,8.43,9.56s-3.89,9.56-8.43,9.56-8.42-3.22-8.42-9.56,3.88-9.56,8.42-9.56m.21,18.07c3.65,0,7-2.67,7-8.3,0-6-3.38-8.71-7.42-8.71-3.67,0-7,2.66-7,8.29,0,6,3.41,8.72,7.42,8.72"/><path class="cls-1" d="M193.45,107.42c.35,0,.45.13.45.53v.53h-7.58c-2.08,0-3.19-1-3.19-3.86V90a2.56,2.56,0,0,1,.79-.13c.26,0,.37.11.37.32v14.24c0,2.32.58,3,2.14,3Z"/><path class="cls-1" d="M209.09,107.08a.9.9,0,0,1,.19-.56,10.49,10.49,0,0,0,5,1.22c3.33,0,4.86-1.59,4.86-3.6s-1.66-3.46-5.23-4.43-5.6-2.64-5.6-5.23c0-2.86,2.38-4.81,5.68-4.81a6.72,6.72,0,0,1,6.05,3.17.41.41,0,0,1-.16.63,1.81,1.81,0,0,1-.79.27,5.35,5.35,0,0,0-5.1-3c-2.67,0-4.52,1.42-4.52,3.64,0,2.06,1.38,3.28,4.76,4.31,4,1.21,6.07,2.56,6.07,5.38s-2.29,4.73-6,4.73c-2.83,0-5.26-1-5.26-1.71"/><path class="cls-1" d="M8.57,67.6a12.28,12.28,0,0,1-3.69-9.22V0H0V58.38A16.53,16.53,0,0,0,5.16,70.85a17.42,17.42,0,0,0,12.39,4.87h.88V71.25h-.88a12.17,12.17,0,0,1-9-3.65"/><path class="cls-1" d="M59.76,55.65a15,15,0,0,1-4.85,11.07,15.71,15.71,0,0,1-11.23,4.73,14.28,14.28,0,0,1-10.83-4.7,15.68,15.68,0,0,1-4.48-11.1V29.24H23.51V55.65A19.8,19.8,0,0,0,29.31,70a19.42,19.42,0,0,0,14.37,5.92c7.11,0,12.51-2.57,16.08-7.65v6.57h4.86V29.24H59.76Z"/><path class="cls-1" d="M120.58,28.17a18.39,18.39,0,0,0-10.58,3,14.83,14.83,0,0,0-5.17,6,17.38,17.38,0,0,0-5-5.9,13.89,13.89,0,0,0-8.46-3A17.23,17.23,0,0,0,83,30.42a19.54,19.54,0,0,0-4.5,3.38V29.24H73.6v45.6h4.87V44.73A12.44,12.44,0,0,1,90.65,32.64,11,11,0,0,1,99,36.22a11.77,11.77,0,0,1,3.47,8.51V74.84h4.86V44.73a11.29,11.29,0,0,1,3.77-8.44,12.09,12.09,0,0,1,8.66-3.65,11.15,11.15,0,0,1,8.3,3.49,12,12,0,0,1,3.45,8.8V74.84h4.86V44.93c0-5.1-1.6-9.21-4.75-12.23a15.53,15.53,0,0,0-11-4.53"/><path class="cls-1" d="M218,53.77a20.05,20.05,0,0,0-5.55-5.2c-2.09-1.3-4.19-2.54-6.23-3.67a26,26,0,0,1-5.09-3.63,5.19,5.19,0,0,1-1.92-3.85A4.31,4.31,0,0,1,200.85,34a5.88,5.88,0,0,1,3.92-1.45c2.9,0,5.25,1.41,7.18,4.29l1.59,2.39V32l-.23-.26a10.69,10.69,0,0,0-8.15-3.69,11.52,11.52,0,0,0-7.73,2.6,8.32,8.32,0,0,0-3.08,6.51,10,10,0,0,0,2.4,6.61,21.64,21.64,0,0,0,5.49,4.57L208.42,52a19.73,19.73,0,0,1,5.09,4.29,8.88,8.88,0,0,1,2,5.93,8.31,8.31,0,0,1-3.17,6.32,11.33,11.33,0,0,1-8,2.9c-5.13,0-8.76-2.52-11.09-7.68l-1.67-3.68V69l.11.2A12.13,12.13,0,0,0,197,74.12a16.87,16.87,0,0,0,7.66,1.8,15.71,15.71,0,0,0,11.07-4.28,13.82,13.82,0,0,0,4.61-10.44A12.37,12.37,0,0,0,218,53.77"/><path class="cls-2" d="M165.22,28.87A23.09,23.09,0,1,0,188.31,52a23,23,0,0,0-23.09-23.09m.19,41.62A18.53,18.53,0,1,1,183.94,52a18.52,18.52,0,0,1-18.53,18.53"/><path class="cls-3" d="M165.41,33.44A18.53,18.53,0,0,1,183.94,52h4.37a23.08,23.08,0,0,0-23.09-23.09v4.58h.19"/><path class="cls-4" d="M188.31,52h-4.37a18.52,18.52,0,0,1-18.53,18.52h-.19V75A23.08,23.08,0,0,0,188.31,52"/><path class="cls-5" d="M146.89,52h-4.76a23.11,23.11,0,0,0,23.09,23.09V70.48A18.51,18.51,0,0,1,146.89,52"/><g class="cls-6"><path class="cls-1" d="M57.77,133.34H51.4L50,136.89h-.42c-.25,0-.34-.1-.25-.3l4.78-12a1.57,1.57,0,0,1,.67-.14.3.3,0,0,1,.32.23L60,136.89h-.51a.36.36,0,0,1-.39-.26Zm-6.1-.71h5.82l-2.91-7.41Z"/><path class="cls-1" d="M156,124.51h4.1c2.6,0,4,1.51,4,3.22a2.78,2.78,0,0,1-2.05,2.83,2.93,2.93,0,0,1,2.46,3c0,1.84-1.36,3.34-4.19,3.34h-2.16c-1.4,0-2.14-.63-2.14-2.58Zm.78.71v5h3.29c2.19,0,3.23-.93,3.23-2.51s-1.24-2.51-3.23-2.51Zm0,9c0,1.55.38,2,1.43,2h2.12c2.21,0,3.38-1.05,3.38-2.62,0-1.73-1.17-2.62-3.5-2.62h-3.43Z"/><path class="cls-1" d="M169.59,136.89c-.26,0-.35-.07-.35-.3V124.51h3.36c2.81,0,4.79,1.54,4.79,4.28a4,4,0,0,1-3.18,4.11,14.58,14.58,0,0,0,2.28,2.88c.58.55.83.62,1.22.62h.17a.71.71,0,0,1,.06.28c0,.23-.25.42-.58.42s-.87-.22-1.51-.86a16,16,0,0,1-2.37-3.22,5.29,5.29,0,0,1-.8,0,8.3,8.3,0,0,1-2.67-.42v4.24ZM170,132a8.86,8.86,0,0,0,2.67.35c2.3,0,3.93-1.27,3.93-3.57s-1.71-3.57-4-3.57H170Z"/><path class="cls-1" d="M189.66,133.34H183.3l-1.4,3.55h-.42c-.25,0-.34-.1-.25-.3l4.77-12a1.64,1.64,0,0,1,.67-.14.3.3,0,0,1,.32.23l4.87,12.22h-.52a.35.35,0,0,1-.38-.26Zm-6.1-.71h5.82l-2.9-7.41Z"/><path class="cls-1" d="M196.75,125.64v11.25h-.42c-.26,0-.35-.07-.35-.3V124.72a1.34,1.34,0,0,1,.69-.28.31.31,0,0,1,.31.2l7.1,11.12V124.51h.42c.27,0,.35.07.35.3v11.87a1.26,1.26,0,0,1-.68.28.34.34,0,0,1-.32-.19Z"/><path class="cls-1" d="M212.55,136.89c-1.4,0-2.14-.63-2.14-2.58v-9.8h3.71a5.78,5.78,0,0,1,6,6.19c0,3.84-2.54,6.19-6,6.19Zm1.63-.7c2.79,0,5.2-1.86,5.2-5.49s-2.41-5.48-5.2-5.48h-3v9c0,1.55.38,2,1.43,2Z"/></g><rect class="cls-1" x="119.04" y="115.12" width="2.9" height="4.91"/><rect class="cls-1" x="85.47" y="115.12" width="2.9" height="4.91"/><rect class="cls-1" x="119.04" y="140.42" width="2.9" height="4.91"/><rect class="cls-1" x="85.47" y="140.36" width="2.9" height="4.91"/><polygon class="cls-1" points="64.02 123.59 67.13 123.59 69.86 132.53 72.83 123.56 75.31 123.56 78.28 132.53 81.01 123.59 84.05 123.59 79.54 136.89 77.01 136.89 74.03 128.25 71.05 136.89 68.53 136.89 64.02 123.59"/><rect class="cls-1" x="85.47" y="123.59" width="2.9" height="13.2"/><path class="cls-1" d="M90.09,134.87l1.72-2.05a6.05,6.05,0,0,0,3.94,1.6c1.19,0,1.91-.47,1.91-1.25v0c0-.74-.46-1.12-2.66-1.68-2.66-.68-4.38-1.42-4.38-4v0c0-2.39,1.93-4,4.62-4a7.66,7.66,0,0,1,4.9,1.67l-1.5,2.19A6.2,6.2,0,0,0,95.2,126c-1.11,0-1.69.51-1.69,1.15v0c0,.87.56,1.15,2.84,1.73,2.68.7,4.19,1.66,4.19,4v0c0,2.62-2,4.09-4.85,4.09a8.43,8.43,0,0,1-5.6-2.11"/><rect class="cls-1" x="102.55" y="123.59" width="2.9" height="13.2"/><rect class="cls-1" x="119.04" y="123.59" width="2.9" height="13.2"/><path class="cls-1" d="M123.93,130.23v0a6.71,6.71,0,0,1,6.88-6.82,6.81,6.81,0,0,1,5.2,2l-1.84,2.14a4.86,4.86,0,0,0-3.38-1.49,3.91,3.91,0,0,0-3.83,4.11v0a3.92,3.92,0,0,0,3.83,4.15,4.76,4.76,0,0,0,3.47-1.54l1.85,1.86A6.76,6.76,0,0,1,130.7,137a6.66,6.66,0,0,1-6.77-6.79"/><polygon class="cls-1" points="144.91 123.5 142.24 123.5 136.58 136.79 139.54 136.79 143.54 126.99 147.54 136.79 150.57 136.79 144.91 123.5"/><rect class="cls-1" x="111.03" y="134.15" /><rect class="cls-1" x="108.13" y="123.59" /></g></g></svg>