<svg xmlns="http://www.w3.org/2000/svg" viewBox="0 0 58.7 41.1"><defs><style>.cls-1{fill:red;}.cls-2{fill:#fff;}</style></defs><g id="Layer_2" data-name="Layer 2"><g id="Layer_1-2" data-name="Layer 1"><path class="cls-1" d="M57.49,6.43a7.34,7.34,0,0,0-5.17-5.17C47.73,0,29.35,0,29.35,0S11,0,6.38,1.21A7.53,7.53,0,0,0,1.21,6.43C0,11,0,20.55,0,20.55s0,9.57,1.21,14.12a7.35,7.35,0,0,0,5.17,5.17c4.64,1.26,23,1.26,23,1.26s18.38,0,23-1.21a7.35,7.35,0,0,0,5.17-5.17C58.7,30.12,58.7,20.6,58.7,20.6S58.75,11,57.49,6.43Z"/><path class="cls-2" d="M23.5,29.35l15.28-8.8L23.5,11.75Z"/></g></g></svg>